<svg xmlns="http://www.w3.org/2000/svg" viewBox="0 0 16 13"><path d="M7.5 10.2c.8 0 1.4.6 1.4 1.4-.1.8-.8 1.3-1.6 1.2-.6-.1-1.1-.6-1.2-1.2 0-.8.6-1.4 1.4-1.4zm5-.1c.8 0 1.4.6 1.4 1.4 0 .8-.6 1.4-1.4 1.4s-1.4-.7-1.4-1.4.6-1.4 1.4-1.4zM15.3 1c.5.2-.5-.1 0 0 .5.2-.5-.1 0 0 .5.2.8.7.7 1.3l-1.8 5.3c-.3 1.1-1 1.5-2.2 1.5H8.2c-.9 0-1.5-.5-2.1-1.5L3.3 2H1c-.6 0-1-.4-1-1s.4-1 1-1h2.7c.4 0 1.2.4 1.4.9 0 0 1.5 3.3 2.4 5.1.3.8.8 1 1.5 1h2.1c.8 0 1.2-.2 1.5-1 .5-1.8 1.5-4.3 1.5-4.3.1-.5.7-.8 1.2-.7.5.2-.5-.1 0 0z"/></svg>