<svg xmlns="http://www.w3.org/2000/svg" viewBox="0 0 16 15"><path d="M7.5 12.2c.8 0 1.4.6 1.4 1.4S8.3 15 7.5 15c-.8 0-1.4-.6-1.4-1.4 0-.8.6-1.4 1.4-1.4zm5 0c.8 0 1.4.6 1.4 1.4 0 .8-.6 1.4-1.4 1.4-.8 0-1.4-.6-1.4-1.4 0-.8.6-1.4 1.4-1.4zm2.8-9.1c-.5-.2-1.1.1-1.3.7 0 0-1 2.5-1.5 4.3-.1.7-.8 1.1-1.5 1H8.9c-.7 0-1.3-.4-1.5-1C6.6 6.2 5 3 5 3c-.2-.6-.7-.9-1.3-1H1c-.6 0-1 .5-1 1s.4 1 1 1h2.2L6 9.6c.3.9 1.2 1.5 2.1 1.5H12c1 .1 1.9-.5 2.2-1.5L16 4.4c.1-.6-.2-1.1-.7-1.3zM9 3V1c0-.6.4-1 1-1s1 .4 1 1v2h2.5L10 6.6 6.5 3H9z"/></svg>