<svg xmlns="http://www.w3.org/2000/svg" viewBox="0 0 20 17"><path d="M9.9 1.2H8.6c.9.7 1.6 1.6 1.6 3.1-.1 1.5-1 2.1-1.9 2.8-.2.1-.5.5-.6.7-.3.8.5 1.3 1 1.6.4.3.7.6 1 .8.6.5 1.2 1.2 1.2 2.4 0 1.3-.8 2.2-1.6 2.9-1 .7-2.1 1.1-3.3 1.1-1.3.2-2.6 0-3.9-.5-1-.4-1.9-1.2-1.9-2.5 0-.7.3-1.3.7-1.8 1.8-2 3-1.7 5.3-1.8-.1-.3-.5-.5-.6-.9-.2-.5-.1-1 .2-1.4-1.2.2-2.5-.2-3.5-1-.8-.8-1.2-1.9-.9-3 .2-1 .8-1.9 1.7-2.4.9-.6 2.1-1 3.2-1h5.1c1.7.2-1.5.9-1.5.9zM3.4 2.5c-.3.9-.1 2 .3 2.8.3.8.9 1.5 1.5 1.8 1 .5 2.4 0 2.8-.9.1-.2.2-.6.2-.9.1-1.7-.8-3.3-1.8-3.9-.3-.2-.8-.3-1.3-.2-.9.1-1.5.7-1.7 1.3zm-.2 8.9c-.4.2-.8.6-1 1.1-.2.4-.2.9 0 1.3.3 1.1 1.7 1.8 3.1 1.9 1.5.1 3.1-.1 3.8-1.2.4-.6.4-1.5 0-2.1-.4-.7-1-1-1.6-1.4-.2-.1-.4-.4-.6-.4h-.7c-1.2.2-2.2.4-3 .8zM15.2.5h1.2v3h3v1.2h-3v3h-1.1v-3h-3V3.5h3l-.1-3z"/></svg>