<svg xmlns="http://www.w3.org/2000/svg"><symbol id="icon-buy" viewBox="0 0 16 15"><path d="M7.5 12.2c.8 0 1.4.6 1.4 1.4S8.3 15 7.5 15c-.8 0-1.4-.6-1.4-1.4 0-.8.6-1.4 1.4-1.4zm5 0c.8 0 1.4.6 1.4 1.4 0 .8-.6 1.4-1.4 1.4-.8 0-1.4-.6-1.4-1.4 0-.8.6-1.4 1.4-1.4zm2.8-9.1c-.5-.2-1.1.1-1.3.7 0 0-1 2.5-1.5 4.3-.1.7-.8 1.1-1.5 1H8.9c-.7 0-1.3-.4-1.5-1C6.6 6.2 5 3 5 3c-.2-.6-.7-.9-1.3-1H1c-.6 0-1 .5-1 1s.4 1 1 1h2.2L6 9.6c.3.9 1.2 1.5 2.1 1.5H12c1 .1 1.9-.5 2.2-1.5L16 4.4c.1-.6-.2-1.1-.7-1.3zM9 3V1c0-.6.4-1 1-1s1 .4 1 1v2h2.5L10 6.6 6.5 3H9z"/></symbol><symbol id="icon-cart" viewBox="0 0 16 13"><path d="M7.5 10.2c.8 0 1.4.6 1.4 1.4-.1.8-.8 1.3-1.6 1.2-.6-.1-1.1-.6-1.2-1.2 0-.8.6-1.4 1.4-1.4zm5-.1c.8 0 1.4.6 1.4 1.4 0 .8-.6 1.4-1.4 1.4s-1.4-.7-1.4-1.4.6-1.4 1.4-1.4zM15.3 1c.5.2-.5-.1 0 0 .5.2-.5-.1 0 0 .5.2.8.7.7 1.3l-1.8 5.3c-.3 1.1-1 1.5-2.2 1.5H8.2c-.9 0-1.5-.5-2.1-1.5L3.3 2H1c-.6 0-1-.4-1-1s.4-1 1-1h2.7c.4 0 1.2.4 1.4.9 0 0 1.5 3.3 2.4 5.1.3.8.8 1 1.5 1h2.1c.8 0 1.2-.2 1.5-1 .5-1.8 1.5-4.3 1.5-4.3.1-.5.7-.8 1.2-.7.5.2-.5-.1 0 0z"/></symbol><symbol id="icon-facebook" viewBox="0 0 10 20"><path d="M9.2.5v3.1s-2.3-.2-2.8.6c-.3.5-.1 1.9-.2 2.9h3c-.3 1.2-.4 2-.6 3H6.2v9.6H2v-9.6H.2v-3H2c.1-2.2.1-4.4 1.2-5.5C4.4.3 5.6.5 9.2.5z"/></symbol><symbol id="icon-flickr" viewBox="0 0 20 8"><path d="M8.4 4c0 2.2-1.8 3.9-4 3.9S.4 6.2.4 4C.4 1.9 2.2.1 4.4.1s4 1.7 4 3.9zm11.2 0c0 2.2-1.8 3.9-4 3.9s-4-1.7-4-3.9c0-2.1 1.8-3.9 4-3.9s4 1.7 4 3.9z"/></symbol><symbol id="icon-google" viewBox="0 0 20 17"><path d="M9.9 1.2H8.6c.9.7 1.6 1.6 1.6 3.1-.1 1.5-1 2.1-1.9 2.8-.2.1-.5.5-.6.7-.3.8.5 1.3 1 1.6.4.3.7.6 1 .8.6.5 1.2 1.2 1.2 2.4 0 1.3-.8 2.2-1.6 2.9-1 .7-2.1 1.1-3.3 1.1-1.3.2-2.6 0-3.9-.5-1-.4-1.9-1.2-1.9-2.5 0-.7.3-1.3.7-1.8 1.8-2 3-1.7 5.3-1.8-.1-.3-.5-.5-.6-.9-.2-.5-.1-1 .2-1.4-1.2.2-2.5-.2-3.5-1-.8-.8-1.2-1.9-.9-3 .2-1 .8-1.9 1.7-2.4.9-.6 2.1-1 3.2-1h5.1c1.7.2-1.5.9-1.5.9zM3.4 2.5c-.3.9-.1 2 .3 2.8.3.8.9 1.5 1.5 1.8 1 .5 2.4 0 2.8-.9.1-.2.2-.6.2-.9.1-1.7-.8-3.3-1.8-3.9-.3-.2-.8-.3-1.3-.2-.9.1-1.5.7-1.7 1.3zm-.2 8.9c-.4.2-.8.6-1 1.1-.2.4-.2.9 0 1.3.3 1.1 1.7 1.8 3.1 1.9 1.5.1 3.1-.1 3.8-1.2.4-.6.4-1.5 0-2.1-.4-.7-1-1-1.6-1.4-.2-.1-.4-.4-.6-.4h-.7c-1.2.2-2.2.4-3 .8zM15.2.5h1.2v3h3v1.2h-3v3h-1.1v-3h-3V3.5h3l-.1-3z"/></symbol><symbol id="icon-linkedin" viewBox="0 0 18 19"><path d="M.3 5.4h3.5v13H.3v-13zm16.4.8c.8.7 1.3 1.9 1.3 3.5v8.8h-3.5v-7.9c0-.7-.1-1.2-.3-1.6-.3-.7-1-1-1.9-1-1.1 0-1.9.5-2.4 1.5-.2.6-.4 1.3-.3 2v7.1H6.5V5.4h3v2.1c.4-.7.8-1.1 1.2-1.4.8-.6 1.7-.8 2.7-.8 1.2-.2 2.3.1 3.3.9zM4.2 2c0 1.2-.9 2.1-2.1 2.1C.9 4.1 0 3.2 0 2 0 .8 1-.1 2.1-.1 3.3-.1 4.2.8 4.2 2z"/></symbol><symbol id="icon-list" viewBox="0 0 16 12"><path d="M1 0c.6 0 1 .4 1 1s-.4 1-1 1-1-.4-1-1 .4-1 1-1zm0 5c.6 0 1 .4 1 1s-.4 1-1 1-1-.4-1-1 .4-1 1-1zm0 5c.6 0 1 .4 1 1s-.4 1-1 1-1-.4-1-1 .4-1 1-1zM5 0h10c.6 0 1 .4 1 1s-.4 1-1 1H5c-.6 0-1-.4-1-1s.4-1 1-1zm0 5h10c.6 0 1 .4 1 1s-.4 1-1 1H5c-.6 0-1-.4-1-1s.4-1 1-1zm0 5h10c.6 0 1 .4 1 1s-.4 1-1 1H5c-.6 0-1-.4-1-1s.4-1 1-1z"/></symbol><symbol id="icon-search" viewBox="0 0 14 14"><path d="M13.7 13.7c-.4.4-1 .4-1.4 0l-2.8-2.8C6.8 12.8 3 12.1 1.1 9.4-.8 6.7-.1 2.9 2.6 1S9.1-.2 11 2.5c1.5 2.1 1.4 4.9 0 7l2.8 2.8c.3.4.3 1-.1 1.4zM10 6c0-2.2-1.8-4-4-4S2 3.8 2 6s1.8 4 4 4 4-1.8 4-4z"/></symbol><symbol id="icon-share" viewBox="0 0 16 13"><path d="M11 2.3V0l5 4-5 4V5.6C5.5 5.6 4 8 4 8c0-5.4 6.8-5.7 7-5.7zm3 7.7v1.1c-.1 1.1-.9 1.9-2 1.9H2c-1.1 0-2-.9-2-2V3c0-1.1.9-2 2-2h3c.6 0 1 .4 1 1H1v10h12V9c.6 0 1 .4 1 1z"/></symbol><symbol id="icon-tile" viewBox="0 0 15 15"><path d="M1 0h5c.6 0 1 .4 1 1v5c0 .6-.4 1-1 1H1c-.6 0-1-.4-1-1V1c0-.6.4-1 1-1zm8 0h5c.6 0 1 .4 1 1v5c0 .6-.4 1-1 1H9c-.6 0-1-.4-1-1V1c0-.6.4-1 1-1zM1 8h5c.6 0 1 .4 1 1v5c0 .6-.4 1-1 1H1c-.6 0-1-.4-1-1V9c0-.6.4-1 1-1zm8 0h5c.6 0 1 .4 1 1v5c0 .6-.4 1-1 1H9c-.6 0-1-.4-1-1V9c0-.6.4-1 1-1z"/></symbol><symbol id="icon-twitter" viewBox="0 0 19 16"><path d="M19 2.1c-.1.7-1.1 1.4-1.8 2 .6 9.2-9.8 15-17.4 10.3 2.1 0 4.5-.6 5.8-1.8-1.8-.3-3.2-1.1-3.7-2.8.5-.1 1.3.1 1.7-.1C1.9 9.1.6 8.1.5 5.8c.6.1.9.4 1.7.3C1.1 5.4-.1 2.7 1 .8 3 3 5.4 4.7 9.3 5c-1-4.1 4.4-6.6 6.9-3.6 1-.2 1.7-.6 2.5-.9-.3.9-1 1.5-1.7 2.1.7-.1 1.4-.1 2-.5z"/></symbol><symbol id="icon-view" viewBox="0 0 16 10"><path d="M16 5v.2c-1.6 2.9-4.6 4.7-7.9 4.8-3.3 0-6.5-2-8-4.8v-.4C1.7 1.9 4.7.1 8.1 0c3.3 0 6.5 2 8 4.8v.1L16 5zm-1 0c-1.5-2.5-4.1-4-7-4-2.8 0-5.6 1.6-7 4 1.4 2.4 4.2 4 7 4s5.6-1.6 7-4zM8.3 3.3c0 .1-.1.3-.3.3-.8 0-1.5.7-1.5 1.5 0 .1-.1.3-.3.3s-.3-.1-.3-.3c0-1.1.9-2 2-2 .2-.1.4 0 .4.2zM11.5 5c0 1.9-1.6 3.5-3.5 3.5S4.5 6.9 4.5 5 6.1 1.5 8 1.5s3.5 1.6 3.5 3.5zM11 5c0-1.7-1.3-3-3-3S5 3.3 5 5s1.3 3 3 3 3-1.3 3-3z"/></symbol><symbol id="icon-wishlist" viewBox="0 0 16 16"><path d="M15.7 7.2l-3 3 .7 4.2c.1.4-.1.9-.5 1.1-.4.3-.8.3-1.2.1l-3.6-2-3.6 2c-.4.2-.9.2-1.2-.1-.4-.2-.5-.7-.5-1.1l.7-4.2-3-3C.2 6.9.1 6.5.2 6.1c.1-.4.5-.7.9-.8l4.2-.6L7.1.9c.2-.4.6-.6 1-.6s.8.3 1 .6l1.8 3.8 4.2.6c.4.1.8.4.9.8.1.3 0 .8-.3 1.1zm-.9-.8l-4.2-.6c-.4-.1-.7-.3-.9-.6L7.9 1.4 6.1 5.2c-.2.3-.5.6-.9.6L1 6.4l3 3c.3.3.4.6.3 1l-.7 4.2 3.6-2c.3-.2.8-.2 1.1 0l3.6 2-.7-4.2c-.1-.4 0-.7.3-1l3.3-3z"/></symbol></svg>